<?xml version="1.0" encoding="UTF-8"?>
<svg width="201px" height="52px" viewBox="0 0 201 52" version="1.1" xmlns="http://www.w3.org/2000/svg" xmlns:xlink="http://www.w3.org/1999/xlink">
    <!-- Generator: Sketch 41.2 (35397) - http://www.bohemiancoding.com/sketch -->
    <title>cbsl-logo</title>
    <desc>Created with Sketch.</desc>
    <defs></defs>
    <g id="Symbols" stroke="none" stroke-width="1" fill="none" fill-rule="evenodd">
        <g id="cbsl-logo" fill="#BFBFBF">
            <path d="M88.5233463,30.2364248 L89.5729919,33.4835769 C88.7218789,34.1732307 87.1048265,35.0931631 84.9485642,35.0931631 C80.3247139,35.0931631 77.0336381,31.8168613 77.0336381,27.247525 C77.0336381,22.6781887 80.4098818,19.3156077 84.9203674,19.3156077 C87.1048265,19.3156077 88.636711,20.1778257 89.6011887,20.925194 L88.494572,24.2586252 C87.842569,23.6552505 86.7077555,22.8215972 85.0337321,22.8215972 C82.509173,22.8215972 80.9485143,24.8048705 80.9485143,27.2189543 C80.9485143,29.7764526 82.7077056,31.5871618 85.175871,31.5871618 C86.6789871,31.5871737 87.8707717,30.7820851 88.5233463,30.2364248 Z M90.8769921,13.9411948 L94.7918682,13.9411948 L94.7918682,34.719482 L90.8769921,34.719482 L90.8769921,13.9411948 Z M104.153511,19.3156137 C108.692193,19.3156137 112.153605,22.7067593 112.153605,27.247531 C112.153605,31.7883026 108.806135,35.0931691 104.153511,35.0931691 C99.5290832,35.0931691 96.1816138,31.7883026 96.1816138,27.247531 C96.1816138,22.6781946 99.6430312,19.3156137 104.153511,19.3156137 Z M104.153511,31.5871737 C106.507734,31.5871737 108.238729,29.8050293 108.238729,27.247531 C108.238729,24.6894476 106.507734,22.8216091 104.153511,22.8216091 C101.798716,22.8216091 100.09649,24.6608829 100.09649,27.247531 C100.096496,29.8050233 101.826913,31.5871737 104.153511,31.5871737 Z M113.400634,28.3680013 L113.400634,19.6892948 L117.31551,19.6892948 L117.31551,28.8279615 C117.31551,30.4946771 118.450324,31.5294533 119.783676,31.5294533 C121.400728,31.5294533 122.421599,30.3227039 122.421599,28.7131177 L122.421599,19.6892948 L126.336475,19.6892948 L126.336475,34.719476 L122.506767,34.719476 L122.506767,32.9664813 C121.882967,34.0012575 120.464447,35.0931631 118.535491,35.0931631 C114.308141,35.0931631 113.400634,31.558024 113.400634,28.3680013 Z M142.932279,34.719482 L139.244132,34.719482 L139.244132,33.1676102 C138.847061,33.6561411 137.372147,35.0931691 134.847017,35.0931691 C130.592041,35.0931691 127.584665,31.845432 127.584665,27.2189663 C127.584665,22.5627718 130.365305,19.3156137 134.620282,19.3156137 C137.173615,19.3156137 138.648528,20.7526417 139.017397,21.2697373 L139.017397,10.1895728 L142.932273,10.1895728 L142.932273,34.719482 L142.932279,34.719482 Z M135.329256,22.8216031 C133.0602,22.8216031 131.528316,24.6323123 131.528316,27.247525 C131.528316,29.9198671 133.116594,31.5871677 135.329256,31.5871677 C137.712253,31.5871677 139.130767,29.6324651 139.130767,27.247525 C139.130767,24.4311894 137.485518,22.8216031 135.329256,22.8216031 Z M145.115589,10.1895728 L149.030465,10.1895728 L149.030465,21.2697313 C149.399339,20.7526357 150.874241,19.3156077 153.427574,19.3156077 C157.683127,19.3156077 160.46319,22.5627598 160.46319,27.2189603 C160.46319,31.845426 157.455815,35.0931631 153.200839,35.0931631 C150.675714,35.0931631 149.200801,33.6561351 148.80373,33.1676042 L148.80373,34.719476 L145.115583,34.719476 L145.115583,10.1895728 L145.115589,10.1895728 Z M152.718606,31.5871737 C154.931262,31.5871737 156.519546,29.9198731 156.519546,27.247531 C156.519546,24.6323182 154.987661,22.8216091 152.718606,22.8216091 C150.562355,22.8216091 148.9171,24.4311953 148.9171,27.247531 C148.9171,29.6324651 150.33562,31.5871737 152.718606,31.5871737 Z M166.731718,25.0922785 C168.235406,25.0922785 169.398416,25.5516597 169.937626,25.9253468 L169.937626,24.948285 C169.937626,23.6261067 168.973148,22.735324 167.242731,22.735324 C165.76724,22.735324 164.405697,23.2238549 163.299081,23.7986649 L161.824167,21.0971731 C163.157519,20.1778257 165.398372,19.3156077 167.667999,19.3156077 C172.433988,19.3156077 173.852508,21.8445413 173.852508,25.2071223 L173.852508,34.719476 L170.391668,34.719476 L170.136164,33.7424142 C169.370225,34.5760616 168.235406,35.0931631 166.533185,35.0931631 C163.526387,35.0931631 160.973054,33.2253186 160.973054,30.0638666 C160.973054,27.1035315 163.270878,25.0922785 166.731718,25.0922785 Z M167.46946,32.0179902 C168.944951,32.0179902 170.022794,31.2134866 170.022794,29.9490228 C170.022794,28.6268445 168.944951,27.8509057 167.441264,27.8509057 C165.937576,27.8509057 164.88793,28.7131237 164.88793,29.9490228 C164.88793,31.1843369 165.994547,32.0179902 167.46946,32.0179902 Z M174.873379,32.3053922 L177.171203,30.2364248 C177.908374,31.0986428 178.90162,31.8745757 180.575072,31.8745757 C181.681689,31.8745757 182.390657,31.3860448 182.390657,30.5238268 C182.390657,28.2245868 175.383815,29.1153635 175.383815,23.7700943 C175.383815,20.9823233 177.73861,19.3156077 180.773604,19.3156077 C183.582441,19.3156077 185.142523,20.8097651 185.852068,21.9879498 L183.270538,23.9426525 C182.816496,23.3678425 181.993586,22.5056245 180.60384,22.5056245 C179.695756,22.5056245 179.071956,22.9655907 179.071956,23.7123739 C179.071956,26.097893 186.107,24.948273 186.107,30.322692 C186.107,33.2538774 183.610638,35.0931512 180.405308,35.0931512 C177.483106,35.0931631 175.667515,33.5984267 174.873379,32.3053922 Z M193.79462,19.3156137 C198.390273,19.3156137 201,22.4193573 201,27.3338101 C201,27.6212181 201,27.9086201 200.971803,28.1960281 L190.532318,28.1960281 C190.616909,30.207281 192.205764,31.6443091 194.390229,31.6443091 C196.404352,31.6443091 197.567363,30.4375596 197.993208,29.8050352 L200.574738,31.7883085 C200.007331,32.8516494 198.021405,35.0931751 194.333258,35.0931751 C189.567269,35.0931751 186.532274,31.7591588 186.532274,27.2475369 C186.532268,22.7067593 189.567263,19.3156137 193.79462,19.3156137 Z M197.028724,25.6093741 C196.943556,23.7701002 195.638401,22.5627598 193.851013,22.5627598 C192.007226,22.5627598 190.816019,23.8849381 190.645683,25.6093741 L197.028724,25.6093741 Z M151.887057,15.7787195 L152.901599,14.8652044 C153.226737,15.2458879 153.66524,15.5880912 154.404132,15.5880912 C154.892699,15.5880912 155.205752,15.3723904 155.205752,14.9917129 C155.205752,13.9767559 152.112059,14.3702621 152.112059,12.0098095 C152.112059,10.7791577 153.151923,10.0434422 154.492175,10.0434422 C155.732298,10.0434422 156.421131,10.7027822 156.734183,11.223376 L155.59419,12.086173 C155.393931,11.832583 155.030814,11.4518995 154.416789,11.4518995 C154.016265,11.4518995 153.74062,11.6547715 153.74062,11.984737 C153.74062,13.0375833 156.84697,12.5303973 156.84697,14.9030937 C156.84697,16.1972922 155.744384,17.0093713 154.329317,17.0093713 C153.039136,17.0093713 152.237516,16.3494522 151.887057,15.7787195 Z M160.678988,10.0434422 C162.68333,10.0434422 164.211184,11.5405127 164.211184,13.5453543 C164.211184,15.5501959 162.733395,17.0093713 160.678988,17.0093713 C158.637246,17.0093713 157.159451,15.55019 157.159451,13.5453543 C157.159457,11.52769 158.687888,10.0434422 160.678988,10.0434422 Z M160.678988,15.4615827 C161.718852,15.4615827 162.483065,14.6745702 162.483065,13.5453543 C162.483065,12.4161385 161.718846,11.5912307 160.678988,11.5912307 C159.639702,11.5912307 158.888147,12.4033098 158.888147,13.5453543 C158.888147,14.6745702 159.651788,15.4615827 160.678988,15.4615827 Z M164.94951,7.67016078 L166.6782,7.67016078 L166.6782,16.8443945 L164.94951,16.8443945 L164.94951,7.67016078 Z M167.74223,14.0402966 L167.74223,10.208419 L169.47092,10.208419 L169.47092,14.2431686 C169.47092,14.9788782 169.972151,15.4359312 170.560849,15.4359312 C171.274425,15.4359312 171.725586,14.9030937 171.725586,14.1924506 L171.725586,10.208419 L173.453704,10.208419 L173.453704,16.8443945 L171.762993,16.8443945 L171.762993,16.0702047 C171.487348,16.5272518 170.861243,17.0093713 170.009553,17.0093713 C168.143331,17.0093713 167.74223,15.4487599 167.74223,14.0402966 Z M174.668512,8.81220533 L176.371881,8.81220533 L176.371881,10.2084249 L177.599346,10.2084249 L177.599346,11.629126 L176.371881,11.629126 L176.371881,14.1924566 C176.371881,15.1823412 176.672847,15.3852192 177.336359,15.3852192 C177.449152,15.3852192 177.511875,15.3852192 177.649989,15.3723964 L177.649989,16.870052 C177.649989,16.870052 177.386424,16.9330137 176.91052,16.9330137 C175.345259,16.9330137 174.656426,16.0451502 174.656426,14.2431806 L174.656426,11.6291319 L173.967022,11.6291319 L173.967022,10.2084309 L174.668512,10.2084309 L174.668512,8.81220533 L174.668512,8.81220533 Z M179.277401,7.60719906 C179.854018,7.60719906 180.291943,8.03860057 180.291943,8.60932735 C180.291943,9.18063915 179.854018,9.61204066 179.277401,9.61204066 C178.714024,9.61204066 178.275516,9.18063915 178.275516,8.60932735 C178.275516,8.03860057 178.714019,7.60719906 179.277401,7.60719906 Z M178.425716,10.2084249 L180.154406,10.2084249 L180.154406,16.8443945 L178.425716,16.8443945 L178.425716,10.2084249 Z M184.424922,10.0434422 C186.429263,10.0434422 187.957117,11.5405127 187.957117,13.5453543 C187.957117,15.5501959 186.479328,17.0093713 184.424922,17.0093713 C182.383179,17.0093713 180.905384,15.55019 180.905384,13.5453543 C180.905384,11.52769 182.433815,10.0434422 184.424922,10.0434422 Z M184.424922,15.4615827 C185.464785,15.4615827 186.228998,14.6745702 186.228998,13.5453543 C186.228998,12.4161385 185.464779,11.5912307 184.424922,11.5912307 C183.385635,11.5912307 182.63408,12.4033098 182.63408,13.5453543 C182.63408,14.6745702 183.397721,15.4615827 184.424922,15.4615827 Z M194.406911,13.0125168 L194.406911,16.8443945 L192.678793,16.8443945 L192.678793,12.8096448 C192.678793,12.0733503 192.177561,11.6168823 191.588864,11.6168823 C190.875288,11.6168823 190.424127,12.1497198 190.424127,12.8603628 L190.424127,16.8443945 L188.695437,16.8443945 L188.695437,10.2084249 L190.386726,10.2084249 L190.386726,10.9820297 C190.662371,10.5255617 191.288475,10.0434422 192.140166,10.0434422 C194.006393,10.0434422 194.406911,11.6040595 194.406911,13.0125168 Z M195.020936,15.7787195 L196.035478,14.8652044 C196.360616,15.2458879 196.799119,15.5880912 197.538011,15.5880912 C198.026579,15.5880912 198.339631,15.3723904 198.339631,14.9917129 C198.339631,13.9767559 195.245938,14.3702621 195.245938,12.0098095 C195.245938,10.7791577 196.285802,10.0434422 197.626054,10.0434422 C198.866177,10.0434422 199.55501,10.7027822 199.868062,11.223376 L198.728069,12.086173 C198.52781,11.832583 198.164693,11.4518995 197.550669,11.4518995 C197.150144,11.4518995 196.874499,11.6547715 196.874499,11.984737 C196.874499,13.0375833 199.980849,12.5303973 199.980849,14.9030937 C199.980849,16.1972922 198.878263,17.0093713 197.463197,17.0093713 C196.173009,17.0093713 195.371389,16.3494522 195.020936,15.7787195 Z M59.6977942,17.4378238 C59.0989143,17.4232101 58.4918022,17.4157779 57.893323,17.4157779 C57.7325158,17.4157779 57.5704535,17.4206611 57.4087801,17.4217177 C57.4466881,14.3630448 57.3873069,11.2999306 57.2029818,8.26191857 C56.9499178,4.09147912 53.3948115,0.490023308 49.2780911,0.233663381 C46.7884525,0.0786260384 44.2660502,-3.55271368e-15 41.7808429,-3.55271368e-15 C39.2947695,-3.55271368e-15 36.7717543,0.0786260384 34.2819036,0.233699199 C30.1651419,0.490059126 26.6100357,4.09151494 26.3570129,8.26202603 C26.3336364,8.64740764 26.3242139,9.03544573 26.3043965,9.42159145 C26.2213854,9.41649338 26.1400655,9.40399297 26.0564769,9.40147976 C25.2955346,9.37874142 24.5240149,9.36719615 23.763326,9.36719615 C23.0705747,9.36719615 22.368112,9.3767416 21.675508,9.39561758 C18.4962176,9.4821892 15.6992133,11.461636 14.3487076,14.2344291 C13.5556852,14.2136607 12.7624036,14.1999604 11.9750618,14.1999604 C10.7188224,14.1999963 9.44435076,14.2265969 8.18707419,14.2790999 C3.90893374,14.4577829 0.275707338,18.1286835 0.0880351209,22.4621656 C-0.0257656154,25.089622 -0.0292541218,27.7542394 0.0776756711,30.3819465 C0.253980778,34.7159778 3.87764325,38.3966447 8.15534763,38.5867298 C8.65438083,38.6089189 9.1570145,38.6227983 9.65921211,38.6367911 C9.69963635,40.3467925 9.76153967,42.0547941 9.86871695,43.7545218 C10.1296183,47.8916925 13.6644005,51.4726366 17.7483219,51.7369362 C20.4451613,51.9115002 23.1773159,52 25.8689756,52 C28.5608532,52 31.293332,51.9114584 33.9904955,51.7369004 C37.785572,51.4912858 41.1023992,48.3805457 41.7625283,44.6218737 C42.2093753,44.7213457 42.6654327,44.7902054 43.1312662,44.8105021 C44.4505875,44.8679599 45.7878227,44.8970738 47.1058123,44.8970738 C48.4240199,44.8970738 49.7613612,44.8679599 51.0806825,44.8104663 C54.9667136,44.6412213 58.308579,41.5870316 59.0251725,37.7803338 C59.2498217,37.7768714 59.4746123,37.7775639 59.6977824,37.7721375 C64.1296057,37.6638125 67.8220719,33.9231747 67.9289605,29.4335629 C67.9578762,28.2201812 67.9578762,26.9897443 67.9289958,25.7764343 C67.8221191,21.2867866 64.1296175,17.546107 59.6977942,17.4378238 Z M21.7102516,10.7042746 C22.3946589,10.6856195 23.0791368,10.6763307 23.763326,10.6763307 C24.5150226,10.6763307 25.2664716,10.6875536 26.0183508,10.7100353 C26.0947444,10.7123336 26.1691934,10.7236998 26.245086,10.7285829 C26.1320455,13.5000329 26.1054279,16.2831057 26.1759229,19.0599463 C26.0743908,19.0596896 25.9714917,19.0549556 25.8700657,19.0549556 C24.9811566,19.0549556 24.0846163,19.0793655 23.1896612,19.0985698 C21.83473,16.3889175 19.0942666,14.4268901 16.004929,14.2895945 C15.9354418,14.2864962 15.8651295,14.285553 15.7955303,14.2826339 C17.0249754,12.2157021 19.2396466,10.7715344 21.7102516,10.7042746 Z M9.63871713,37.3264208 C9.16320778,37.3128638 8.68769253,37.3000052 8.21200051,37.2788727 C4.59118424,37.1179732 1.51809883,33.9965236 1.36884143,30.3280587 C1.26288394,27.7239614 1.26630173,25.1233564 1.37905356,22.5195516 C1.53791614,18.8515284 4.61912764,15.7383468 8.24030337,15.587142 C9.48574731,15.5351107 10.7304782,15.509095 11.9750618,15.509095 C13.2992741,15.509095 14.6233096,15.5385373 15.9483115,15.5974516 C18.3500421,15.7042065 20.504902,17.1172963 21.7311827,19.124872 C20.4010364,19.1688145 19.070348,19.2324687 17.7483278,19.3180195 C13.6644418,19.5823966 10.1296596,23.1633049 9.8687582,27.3004756 C9.65904122,30.625812 9.59296584,33.9788117 9.63871713,37.3264208 Z M40.5804609,43.6710484 C40.3602371,47.1627585 37.3548063,50.2073669 33.9081031,50.430464 C31.2259013,50.6040431 28.5472292,50.6908714 25.8689814,50.6908714 C23.1907337,50.6908714 20.5129279,50.6040789 17.8307261,50.4304999 C14.3839874,50.2074027 11.3785567,47.1627943 11.1583329,43.6710484 C10.8156461,38.2367302 10.8156461,32.8182971 11.1583683,27.383943 C11.378592,23.892233 14.3839874,20.8476245 17.8307261,20.6244916 C20.5129279,20.4508767 23.1914585,20.3640843 25.8697357,20.3640484 C28.548013,20.3640484 31.225972,20.4508767 33.9081738,20.6244916 C37.354877,20.8475887 40.3602371,23.8921971 40.5804962,27.3838356 C40.9232596,32.8182255 40.9232184,38.2366943 40.5804609,43.6710484 Z M33.9905721,19.3180135 C31.8245631,19.1778107 29.6398506,19.1088734 27.4675836,19.0809653 C27.374325,15.5018061 27.4294222,11.9254944 27.646841,8.34232953 C27.8611308,4.81053934 30.8749057,1.75744209 34.3612082,1.54035638 C36.836386,1.3862324 39.3086822,1.30913458 41.7805188,1.30913458 C44.2523142,1.30913458 46.723644,1.38616076 49.1987865,1.54032057 C52.685089,1.75740628 55.6988286,4.81050352 55.9131537,8.3422579 C56.2174316,13.3572034 56.2174316,18.3585561 55.9131183,23.3734599 C55.6988286,26.9052501 52.6850537,29.9583115 49.1987511,30.1753972 C46.8026304,30.3246022 44.4094207,30.3980944 42.0164645,30.4029 C41.9760048,29.367288 41.9351445,28.331491 41.8701181,27.3003622 C41.6091754,23.1632273 38.0744227,19.5823548 33.9905721,19.3180135 Z M57.8773124,36.5610541 C57.7216143,40.2292206 54.6461187,43.3448438 51.0251964,43.5025734 C49.7182086,43.5594879 48.4119456,43.587981 47.1058241,43.587981 C45.7997379,43.587981 44.4937577,43.5595237 43.1867759,43.5025734 C42.7451085,43.4833333 42.3119268,43.4186284 41.8907957,43.3157299 C42.1205127,39.4651971 42.1810076,35.5800166 42.0685799,31.7111988 C44.4609646,31.7053665 46.8840211,31.631152 49.2780263,31.4820544 C52.7755486,31.2642762 55.8595297,28.6292443 56.8657988,25.2848827 C57.4585267,26.2823845 57.8263932,27.4203459 57.8773183,28.6203197 C57.9897461,31.2683953 57.9897107,33.9129726 57.8773124,36.5610541 Z M66.6370935,29.4020074 C66.5468519,33.1921275 63.4079858,36.3719481 59.6666452,36.4633671 C59.5020961,36.4673727 59.3376236,36.4665011 59.1731158,36.4694143 C59.2803343,33.845277 59.2797215,31.1867068 59.1684016,28.5640977 C59.0882661,26.6766191 58.3534346,24.9142939 57.1966824,23.5103854 C57.1979788,23.4913661 57.2017915,23.4728185 57.2029405,23.4537634 C57.2981084,21.8852065 57.3530642,20.3090681 57.3890335,18.7310732 C57.5571064,18.7299091 57.7252501,18.7249185 57.8933171,18.7249185 C58.4844245,18.7249185 59.0754258,18.7321298 59.6666452,18.7466002 C63.4079858,18.8379834 66.5468873,22.0178398 66.6370935,25.8079957 C66.6656144,27.0061787 66.6656144,28.2038184 66.6370935,29.4020074 Z" id="CBSL"></path>
        </g>
    </g>
</svg>