<?xml version="1.0" encoding="UTF-8"?>
<svg width="167px" height="52px" viewBox="0 0 167 52" version="1.1" xmlns="http://www.w3.org/2000/svg" xmlns:xlink="http://www.w3.org/1999/xlink">
    <!-- Generator: Sketch 41.2 (35397) - http://www.bohemiancoding.com/sketch -->
    <title>hyperv-logo</title>
    <desc>Created with Sketch.</desc>
    <defs></defs>
    <g id="Symbols" stroke="none" stroke-width="1" fill="none" fill-rule="evenodd">
        <g id="hyperv-logo" fill="#BFBFBF">
            <path d="M52.098154,0 L23.7018772,3.90038078 L23.7018772,24.8023052 L52.098154,24.8023052 L52.098154,0 Z M0,7.15447154 L0.00123591038,24.8023052 L21.3400525,24.8023052 L21.3400525,4.22352578 L0,7.15447154 Z M23.7018772,27.4356283 L23.7018772,48.1041474 L52.098154,52 L52.098154,27.4356283 L23.7018772,27.4356283 Z M21.3400525,27.4364516 L0.00123591038,27.4364516 L0.00247182075,44.8537614 L21.3400525,47.7797674 L21.3400525,27.4364516 L21.3400525,27.4356283 L21.3400525,27.4364516 Z M82.8661428,34.8866523 L80.7296657,34.8866523 L80.7296657,26.57668 L71.293902,26.57668 L71.293902,34.8866523 L69.1574249,34.8866523 L69.1574249,16.6645673 L71.293902,16.6645673 L71.293902,24.6571576 L80.7296657,24.6571576 L80.7296657,16.6645673 L82.8661428,16.6645673 L82.8661428,34.8866523 Z M97.2112721,21.8746527 L91.2216384,36.97067 C90.1533999,39.6645055 88.6525927,41.0114233 86.7196289,41.0114233 C86.1770643,41.0114233 85.7234852,40.9562622 85.3588916,40.8463518 L85.3588916,38.9782855 C85.808351,39.1310075 86.2194972,39.2071627 86.5927421,39.2071627 C87.6436779,39.2071627 88.4321887,38.5798086 88.9578626,37.3263353 L90.000971,34.861377 L84.9139639,21.8746527 L87.228412,21.8746527 L90.7507566,31.8876196 C90.7931895,32.0148194 90.8821751,32.3453741 91.0181252,32.8788721 L91.0943397,32.8788721 C91.1367726,32.6755171 91.2216384,32.3536071 91.3489372,31.9131419 L95.0492529,21.8746527 L97.2112721,21.8746527 Z M101.065047,33.0060718 L101.013962,33.0060718 L101.013962,40.8714624 L98.9285696,40.8714624 L98.9285696,21.8746527 L101.013962,21.8746527 L101.013962,24.16219 L101.065047,24.16219 C102.09044,22.4336729 103.591247,21.5696203 105.566644,21.5696203 C107.245422,21.5696203 108.555075,22.1525162 109.496015,23.3170732 C110.437367,24.4816301 110.907837,26.0426057 110.907837,27.9995884 C110.907837,30.1768035 110.377631,31.9193167 109.318044,33.2283627 C108.258457,34.5374087 106.808322,35.1919317 104.969288,35.1919317 C103.281858,35.1919317 101.980444,34.4633117 101.065047,33.0060718 Z M101.013962,27.75795 L101.013962,29.5749717 C101.013962,30.651024 101.363725,31.5636513 102.06325,32.3132654 C102.762364,33.0632911 103.650571,33.438304 104.727461,33.438304 C105.990561,33.438304 106.980114,32.9550273 107.696942,31.9892971 C108.412946,31.0239786 108.77136,29.6811773 108.77136,27.9613049 C108.77136,26.5127097 108.436428,25.3777915 107.766977,24.5561387 C107.097113,23.734486 106.189543,23.3236596 105.04509,23.3236596 C103.832662,23.3236596 102.857941,23.7447772 102.120514,24.5878358 C101.383088,25.4308943 101.013962,26.4871874 101.013962,27.75795 Z M124.185057,28.9016363 L114.990296,28.9016363 C115.024078,30.3502316 115.414213,31.4682721 116.160291,32.2561696 C116.906369,33.0440671 117.932175,33.4384275 119.23812,33.4384275 C120.704322,33.4384275 122.0527,32.9551508 123.281607,31.9894206 L123.281607,33.9464032 C122.137566,34.776289 120.623987,35.1916435 118.742108,35.1916435 C116.902249,35.1916435 115.456646,34.6009262 114.405298,33.41908 C113.353951,32.2372337 112.828277,30.5745806 112.828277,28.4311207 C112.828277,26.4066276 113.402975,24.7571473 114.55196,23.4822682 C115.700533,22.2069775 117.126773,21.5693321 118.830682,21.5693321 C120.535002,21.5693321 121.852894,22.1201194 122.786007,23.2216939 C123.718295,24.3228568 124.185057,25.8521354 124.185057,27.809118 L124.185057,28.9016363 Z M122.048168,27.1352475 C122.039517,25.9324071 121.749078,24.9967274 121.177263,24.327385 C120.605037,23.6580426 119.809934,23.3233714 118.79278,23.3233714 C117.808996,23.3233714 116.974344,23.6749202 116.28759,24.3780179 C115.600836,25.0811156 115.176507,26.0003293 115.015838,27.1352475 L122.048168,27.1352475 Z M133.608668,23.9839457 C133.243662,23.7044355 132.7184,23.5644746 132.031646,23.5644746 C131.141379,23.5644746 130.397361,23.9839457 129.800004,24.8224761 C129.202235,25.6614181 128.903145,26.804981 128.903145,28.2535762 L128.903145,34.8864876 L126.817752,34.8864876 L126.817752,21.8746527 L128.903145,21.8746527 L128.903145,24.5561387 L128.954229,24.5561387 C129.250848,23.6410415 129.704015,22.9276526 130.314967,22.4143254 C130.925094,21.9022332 131.607729,21.6457754 132.362458,21.6457754 C132.904611,21.6457754 133.320289,21.7054646 133.608668,21.8240198 L133.608668,23.9839457 Z M133.431026,28.4570546 L140.374371,28.4570546 L140.374371,26.8178656 L133.431026,26.8178656 L133.431026,28.4570546 Z M157.440975,16.6647319 L150.688372,34.8868169 L148.335611,34.8868169 L141.723079,16.6647319 L144.10097,16.6647319 L149.149664,31.1128126 C149.310744,31.5788 149.433511,32.1164145 149.518377,32.7264794 L149.569462,32.7264794 C149.637025,32.218092 149.776683,31.6718329 149.988847,31.0872903 L155.139298,16.6647319 L157.440975,16.6647319 Z M167,20.6276423 L166.366802,20.6276423 L166.366802,17.8267778 L166.342908,17.8267778 L165.058797,20.6276423 L164.712742,20.6276423 L163.457881,17.8267778 L163.434811,17.8267778 L163.434811,20.6276423 L162.83663,20.6276423 L162.83663,16.7486673 L163.58106,16.7486673 L164.9006,19.6553257 L164.924083,19.6553257 L166.260926,16.7486673 L167,16.7486673 L167,20.6276423 Z M162.343914,17.3233302 L161.118714,17.3233302 L161.118714,20.6276423 L160.467802,20.6276423 L160.467802,17.3233302 L159.259905,17.3233302 L159.259905,16.7486673 L162.343914,16.7486673 L162.343914,17.3233302 Z" id="Combined-Shape"></path>
        </g>
    </g>
</svg>