<?xml version="1.0" encoding="utf-8"?>
<!-- Generator: Adobe Illustrator 18.1.1, SVG Export Plug-In . SVG Version: 6.00 Build 0)  -->
<!DOCTYPE svg PUBLIC "-//W3C//DTD SVG 1.1//EN" "http://www.w3.org/Graphics/SVG/1.1/DTD/svg11.dtd">
<svg version="1.1" id="Layer_1" xmlns="http://www.w3.org/2000/svg" xmlns:xlink="http://www.w3.org/1999/xlink" x="0px" y="0px"
	 width="29px" height="28.999939px" viewBox="0 0 29 28.999939" enable-background="new 0 0 29 28.999939" xml:space="preserve">
<path fill="#FFFFFF" d="M14.5,0C6.4918823,0,0,6.4918823,0,14.5s6.4918823,14.499939,14.5,14.499939S29,22.5081177,29,14.5
	S22.5081177,0,14.5,0z M23,21.5580444c0,0.4252319-0.2799683,0.7758179-0.7061768,0.7924194
	C19.7799683,22.4483032,17.2223511,22.5,14.5826416,22.5s-5.2661743-0.0516968-7.7800903-0.1495361
	C6.3763428,22.3338623,6,21.9832764,6,21.5580444v-0.7147827c0-0.4251709,0.3901367-0.7758179,0.8163452-0.7924194
	c2.513855-0.0978394,5.1265869-0.1495361,7.7662964-0.1495361s5.1835327,0.0516968,7.6974487,0.1495361
	C22.7062378,20.0674438,23,20.4180908,23,20.8432617V21.5580444z M23,17.0909424
	c0,0.4251709-0.2799683,0.7758179-0.7061768,0.7924194c-2.513855,0.0978394-5.0714722,0.1495361-7.7111816,0.1495361
	s-5.2661743-0.0516968-7.7800903-0.1495361C6.3763428,17.8667603,6,17.5161133,6,17.0909424v-0.7147827
	c0-0.4251709,0.3901367-0.7758179,0.8163452-0.7924194c2.513855-0.0978394,5.1265869-0.1495361,7.7662964-0.1495361
	s5.1835327,0.0516968,7.6974487,0.1495361C22.7062378,15.6003418,23,15.9509888,23,16.3761597V17.0909424z M23,12.6238403
	c0,0.4251709-0.2799683,0.7758179-0.7061768,0.7924194c-2.513855,0.0978394-5.0714722,0.1495361-7.7111816,0.1495361
	s-5.2661743-0.0516968-7.7800903-0.1495361C6.3763428,13.3996582,6,13.0490112,6,12.6238403v-0.7147827
	c0-0.4252319,0.3901367-0.7758179,0.8163452-0.7924194c2.513855-0.0978394,5.1265869-0.1495361,7.7662964-0.1495361
	s5.1835327,0.0516968,7.6974487,0.1495361C22.7062378,11.1332397,23,11.4838257,23,11.9090576V12.6238403z M23,8.1567383
	c0,0.4251709-0.2799683,0.7758179-0.7061768,0.7923584c-2.513855,0.0979004-5.0714722,0.1495361-7.7111816,0.1495361
	S9.3164673,9.0469971,6.8025513,8.9490967C6.3763428,8.9325562,6,8.5819092,6,8.1567383V7.4419556
	c0-0.4252319,0.3901367-0.7758179,0.8163452-0.7924194C9.3302002,6.5516968,11.9429321,6.5,14.5826416,6.5
	s5.1835327,0.0516968,7.6974487,0.1495361C22.7062378,6.6661377,23,7.0167236,23,7.4419556V8.1567383z"/>
</svg>
