<?xml version="1.0" encoding="UTF-8"?>
<svg width="236px" height="42px" viewBox="0 0 236 42" version="1.1" xmlns="http://www.w3.org/2000/svg" xmlns:xlink="http://www.w3.org/1999/xlink">
    <!-- Generator: Sketch 41.2 (35397) - http://www.bohemiancoding.com/sketch -->
    <title>openstack-logo</title>
    <desc>Created with Sketch.</desc>
    <defs></defs>
    <g id="Symbols" stroke="none" stroke-width="1" fill="none" fill-rule="evenodd">
        <g id="openstack-logo" fill="#BFBFBF">
            <path d="M38.8613129,0 L3.98039952,0 C1.79138111,0 9.82062994e-05,1.79431057 9.82062994e-05,3.98752077 L9.82062994e-05,13.3830582 L9.67489179,13.3830582 L9.67489179,11.8479586 C9.67489179,10.6566702 10.6387866,9.69114614 11.8280649,9.69114614 L31.0141386,9.69114614 C32.2029258,9.69114614 33.1668207,10.6566702 33.1668207,11.8479586 L33.1668207,13.3830582 L42.8421053,13.3830582 L42.8421053,3.98752077 C42.8421053,1.79431057 41.0508224,0 38.8613129,0 Z M33.1669189,30.1520414 C33.1669189,31.3433298 32.203024,32.3088539 31.0137458,32.3088539 L11.8281631,32.3088539 C10.6388848,32.3088539 9.67499,31.3433298 9.67499,30.1520414 L9.67499,28.6169418 L0.000196412599,28.6169418 L0.000196412599,38.0124792 C0.000196412599,40.2056894 1.79147931,42 3.98049773,42 L38.8614111,42 C41.0509206,42 42.8417125,40.2056894 42.8417125,38.0124792 L42.8417125,28.6169418 L33.1669189,28.6169418 L33.1669189,30.1520414 Z M0,25.8453025 L9.67479358,25.8453025 L9.67479358,16.1541564 L0,16.1541564 L0,25.8453025 Z M33.1672135,25.8453025 L42.8420071,25.8453025 L42.8420071,16.1541564 L33.1672135,16.1541564 L33.1672135,25.8453025 Z M236,29.1396922 C236,27.6365636 234.778805,26.413796 233.278212,26.413796 C231.77762,26.413796 230.556425,27.6365636 230.556425,29.1396922 C230.556425,30.6433126 231.77762,31.8660802 233.278212,31.8660802 C234.778805,31.8660802 236,30.6433126 236,29.1396922 Z M233.278212,31.1961649 C232.146385,31.1961649 231.22521,30.2739247 231.22521,29.1396922 C231.22521,28.0059515 232.146385,27.0837113 233.278212,27.0837113 C234.41004,27.0837113 235.331215,28.0059515 235.331215,29.1396922 C235.331215,30.2739247 234.41004,31.1961649 233.278212,31.1961649 Z M234.299116,28.6457649 L234.299116,28.6305172 C234.299116,28.3668795 234.219078,28.1573465 234.074224,28.0122474 C233.906291,27.8440307 233.659302,27.7564794 233.350443,27.7564794 L232.348739,27.7564794 L232.348739,30.4277789 L232.900658,30.4277789 L232.900658,29.5502981 L233.247327,29.5502981 L233.738849,30.4277789 L234.371298,30.4277789 L233.803665,29.4356944 C234.097302,29.305843 234.299116,29.050075 234.299116,28.6457649 Z M233.742777,28.6610126 C233.742777,28.9015329 233.590558,29.0618797 233.308214,29.0618797 L232.900658,29.0618797 L232.900658,28.2562106 L233.296921,28.2562106 C233.579264,28.2562106 233.742777,28.3899969 233.742777,28.6570777 L233.742777,28.6610126 Z M72.5302624,21.1847186 L72.5302624,20.8148388 C72.5302624,14.3650596 68.3064095,9.68204671 62.5647782,9.68204671 C56.7819002,9.68204671 52.5168007,14.4476923 52.5168007,20.856647 L52.5168007,21.2260349 C52.5168007,27.6758141 56.7411446,32.3180025 62.4827759,32.3180025 C68.2651628,32.3180025 72.5302624,27.5936733 72.5302624,21.1847186 Z M57.1511559,21.1030696 L57.1511559,20.856647 C57.1511559,16.7889528 59.2429501,13.7905654 62.4827759,13.7905654 C65.6405995,13.7905654 67.8963982,16.830761 67.8963982,20.8974715 L67.8963982,21.1438941 C67.8963982,25.2110964 65.804604,28.2508002 62.5647782,28.2508002 C59.4064636,28.2508002 57.1511559,25.16978 57.1511559,21.1030696 Z M94.5923076,21.267548 L94.5923076,20.6920701 C94.5923076,13.3382496 90.4907215,9.68224345 86.1436196,9.68224345 C83.0265517,9.68224345 81.1400087,11.4898343 79.7867259,13.5851641 L79.7867259,10.0929478 L75.1523706,10.0929478 L75.1523706,38.0695352 L79.7867259,38.0695352 L79.7867259,28.5795603 C81.0992531,30.5101165 82.9857961,32.2768829 86.1436196,32.2768829 C90.5314771,32.2768829 94.5923076,28.5795603 94.5923076,21.267548 Z M79.7047236,21.1849153 L79.7047236,20.774211 C79.7047236,16.5019024 82.0837712,13.7907621 84.8718481,13.7907621 C87.660907,13.7907621 89.9167057,16.4610779 89.9167057,20.8150355 L89.9167057,21.1849153 C89.9167057,25.5398566 87.7016626,28.168856 84.8718481,28.168856 C82.0837712,28.168856 79.7047236,25.4572239 79.7047236,21.1849153 Z M114.672746,28.9496861 L112.252943,26.0732803 C110.817658,27.4701668 109.30037,28.3742082 107.249823,28.3742082 C104.420008,28.3742082 102.16421,26.4023356 101.754198,22.7463295 L115.370011,22.7463295 C115.410766,22.0892026 115.410766,21.431092 115.410766,21.1438449 C115.410766,14.6124167 112.294189,9.68199752 106.388554,9.68199752 C101.056934,9.68199752 97.1198431,14.3655022 97.1198431,20.8979142 L97.1198431,21.2259857 C97.1198431,28.0456447 101.466945,32.3179533 107.045063,32.3179533 C110.284889,32.3179533 112.704692,31.044524 114.672746,28.9496861 Z M106.388554,13.58541 C109.09561,13.58541 110.653653,16.0909522 110.900151,19.5418521 L101.713443,19.5418521 C102.041452,15.8445296 103.845993,13.58541 106.388554,13.58541 Z M129.019361,9.68219426 C126.066788,9.68219426 124.303003,11.3668197 123.072478,13.2973759 L123.072478,10.0928986 L118.438123,10.0928986 L118.438123,31.8661294 L123.072478,31.8661294 L123.072478,18.6793239 C123.072478,15.6804446 124.754261,13.8728538 127.174064,13.8728538 C129.634623,13.8728538 131.069908,15.5564956 131.069908,18.5966912 L131.069908,31.8661294 L135.704263,31.8661294 L135.704263,17.2824374 C135.704263,12.640249 133.202458,9.68219426 129.019361,9.68219426 Z M154.385164,25.6626252 L154.385164,25.6218007 C154.385164,22.2117253 151.842112,20.6515408 148.479528,19.131197 C145.936476,17.9807331 144.214428,17.2414653 144.214428,15.8037543 L144.214428,15.7211216 C144.214428,14.5298332 145.239211,13.5854592 146.96175,13.5854592 C148.684288,13.5854592 150.488829,14.4068678 152.129365,15.5160154 L154.09791,12.1059399 C152.047363,10.6274044 149.463555,9.76467943 147.043752,9.76467943 C142.983904,9.76467943 139.866836,12.2293972 139.866836,16.1318259 L139.866836,16.2144586 C139.866836,19.7883239 142.573892,21.2673513 145.813718,22.6637459 C148.397035,23.7733854 150.078818,24.4713368 150.078818,26.032505 L150.078818,26.0733295 C150.078818,27.4293915 148.971542,28.4563982 147.043752,28.4563982 C145.116453,28.4563982 143.024659,27.5110405 141.056605,25.9095397 L138.882808,29.2369824 C141.384614,31.3318203 144.378433,32.2766861 146.96175,32.2766861 C151.145338,32.2766861 154.385164,29.9349338 154.385164,25.6626252 Z M168.735068,31.2499253 L168.735068,27.4291456 C167.955801,27.8398499 167.135779,28.045448 166.233263,28.045448 C164.756731,28.045448 163.895462,27.3474966 163.895462,25.6628711 L163.895462,14.0780584 L168.775824,14.0780584 L168.775824,10.0929969 L163.895462,10.0929969 L163.895462,4.21869565 L159.261107,4.21869565 L159.261107,10.0929969 L156.88255,10.0929969 L157.643649,14.0780584 L159.261107,14.0780584 L159.261107,26.607737 C159.261107,30.839221 161.68091,32.1947912 164.87998,32.1947912 C166.438514,32.1947912 167.668548,31.8254032 168.735068,31.2499253 Z M186.491897,12.0649187 C185.097367,10.6272077 182.924062,9.84662355 180.094247,9.84662355 C177.18243,9.84662355 175.008634,10.5455587 172.91684,11.5725654 L174.229367,15.269396 C175.665143,14.6122691 177.387682,13.9546504 179.478985,13.9546504 C182.432048,13.9546504 184.154587,15.4749941 184.154587,18.3912407 L184.154587,19.295282 C182.678055,18.801945 181.201523,18.4330489 179.150976,18.4330489 C174.557867,18.4330489 171.440799,20.732993 171.440799,25.4164977 L171.440799,25.621604 C171.440799,29.853088 174.475865,32.2769812 178.084946,32.2769812 C180.914761,32.2769812 182.84206,31.0443764 184.11334,29.1959611 L184.11334,31.8662769 L188.665693,31.8662769 L188.665693,18.3504161 C188.665693,15.6392758 187.927182,13.5026297 186.491897,12.0649187 Z M184.195342,24.5537728 C184.195342,27.0184905 182.144795,28.8260813 179.478985,28.7852568 C177.469684,28.7444323 175.952397,27.5113356 175.952397,25.3343569 L175.952397,25.2517242 C175.952397,22.95178 177.51044,21.595718 180.17625,21.595718 C181.734783,21.595718 183.129313,21.9247733 184.195342,22.3763021 L184.195342,24.5537728 Z M208.36514,29.0315318 L205.863826,25.9505117 C204.592054,27.223941 203.320774,28.1688068 201.434231,28.1688068 C198.276407,28.1688068 196.061855,25.3342093 196.061855,21.1032171 L196.061855,20.897619 C196.061855,16.7891004 198.276407,13.8728538 201.311473,13.8728538 C203.280018,13.8728538 204.551299,14.8585442 205.69933,16.0503245 L208.283629,12.640249 C206.479088,10.8326582 204.42805,9.68219426 201.311473,9.68219426 C195.610597,9.68219426 191.386253,14.3652071 191.386253,20.8567945 L191.386253,21.2674988 C191.386253,27.7581025 195.487839,32.3176582 201.147468,32.3176582 C204.469296,32.3176582 206.642602,30.9625799 208.36514,29.0315318 Z M222.549763,20.5653174 L219.29668,24.0678628 L223.659986,31.8658342 L229.032361,31.8658342 L222.549763,20.5653174 Z M223.331633,10.0929478 L215.90871,19.6650634 L215.90871,2.20545755 L211.274354,2.20545755 L211.274354,31.8661786 L215.90871,31.8661786 L215.90871,25.5806811 L228.827257,10.0929478 L223.331633,10.0929478 Z" id="openstack"></path>
        </g>
    </g>
</svg>