<?xml version="1.0" encoding="UTF-8"?>
<svg width="80px" height="52px" viewBox="0 0 80 52" version="1.1" xmlns="http://www.w3.org/2000/svg" xmlns:xlink="http://www.w3.org/1999/xlink">
    <!-- Generator: Sketch 41.2 (35397) - http://www.bohemiancoding.com/sketch -->
    <title>openvswitch-logo</title>
    <desc>Created with Sketch.</desc>
    <defs></defs>
    <g id="Symbols" stroke="none" stroke-width="1" fill="none" fill-rule="evenodd">
        <g id="openvswitch-logo" fill="#BFBFBF">
            <path d="M13.740153,44.1410083 C13.740153,42.1189491 12.2250256,40.4258318 10.0623742,40.4258318 C7.89995397,40.4258318 6.38482653,42.1189491 6.38482653,44.1410083 C6.38482653,46.2366011 8.07079302,47.8575678 10.0623742,47.8575678 C12.0541865,47.8575678 13.740153,46.2366011 13.740153,44.1410083 Z M14.8886353,44.1410083 C14.8886353,46.8714336 12.7257527,48.9301444 10.0623742,48.9301444 C7.39876442,48.9301444 5.23588187,46.8714336 5.23588187,44.1410083 C5.23588187,41.510395 7.42350025,39.3532553 10.0623742,39.3532553 C12.7014793,39.3532553 14.8886353,41.510395 14.8886353,44.1410083 Z M16.8914747,43.9836832 L16.9157482,43.9836832 C17.3679284,43.3011345 18.0524405,42.8624685 18.9075605,42.8624685 C20.55677,42.8624685 21.5959061,44.2877298 21.5959061,45.8471496 C21.5959061,47.4798725 20.6180317,48.9302597 18.8585512,48.9302597 C18.0524405,48.9302597 17.3559073,48.4909021 16.9157482,47.8456964 L16.8914747,47.8456964 L16.8914747,52 L15.7920017,52 L15.7920017,43.0328175 L16.8914747,43.0328175 L16.8914747,43.9836832 Z M20.4959707,45.8838011 C20.4959707,44.7757256 19.8239421,43.836616 18.6387028,43.836616 C17.5024729,43.836616 16.8302131,44.8241333 16.8302131,45.8838011 C16.8302131,46.9566082 17.4779682,47.954268 18.6387028,47.954268 C19.8361945,47.954268 20.4959707,47.0050159 20.4959707,45.8838011 Z M23.3301884,46.0661829 C23.3422095,47.0417135 24.002217,47.9543141 25.0529118,47.9543141 C25.8960107,47.9543141 26.3479597,47.5283263 26.763383,46.8464691 L27.6922481,47.3695029 C27.1543016,48.3570202 26.1523849,48.9303058 25.0404283,48.9303058 C23.2932002,48.9303058 22.230253,47.613616 22.230253,45.9324854 C22.230253,44.1775907 23.1713705,42.8622841 25.0161549,42.8622841 C26.8366658,42.8622841 27.6922481,44.2027166 27.6922481,45.8956034 L27.6922481,46.0661829 L23.3301884,46.0661829 Z M26.5923128,45.2386416 C26.4579995,44.3848218 25.8960107,43.8131498 25.0161549,43.8131498 C24.1610349,43.8131498 23.5253009,44.4217039 23.3912188,45.2386416 L26.5923128,45.2386416 Z M29.731937,43.8006329 L29.7562105,43.8006329 C30.0985821,43.1913873 30.7826319,42.8624454 31.4791651,42.8624454 C33.0925423,42.8624454 33.5072721,43.9470086 33.5072721,45.3356184 L33.5072721,48.7347617 L32.4071055,48.7347617 L32.4071055,45.4693159 C32.4071055,44.4951683 32.2730235,43.8365929 31.149277,43.8365929 C29.731937,43.8365929 29.731937,45.0799796 29.731937,46.1145215 L29.731937,48.7347617 L28.632464,48.7347617 L28.632464,43.0327945 L29.731937,43.0327945 L29.731937,43.8006329 Z M40.5080439,46.5906459 L42.1579469,43.0326792 L43.391502,43.0326792 L40.5080439,48.9301213 L37.6363758,43.0326792 L38.8706244,43.0326792 L40.5080439,46.5906459 Z M48.2047942,41.2915461 C47.8628849,40.718491 47.4222635,40.4257396 46.7264237,40.4257396 C45.9935958,40.4257396 45.1863293,40.9254916 45.1863293,41.7292901 C45.1863293,42.4480293 45.8953461,42.8256095 46.4700496,43.0445967 L47.1291323,43.3011576 C48.4368949,43.8133572 49.4138446,44.531866 49.4138446,46.0661599 C49.4138446,47.7355343 48.1192591,48.9302827 46.4700496,48.9302827 C44.9787333,48.9302827 43.8179986,47.8323497 43.6228861,46.3586807 L44.7833895,46.1145676 C44.770906,47.1272108 45.5786349,47.8574756 46.5673747,47.8574756 C47.5577326,47.8574756 48.2660558,47.0287818 48.2660558,46.0661599 C48.2660558,45.0800257 47.4724287,44.6538073 46.6774144,44.3246349 L46.0428363,44.0556263 C44.9921415,43.6058956 44.0385405,43.0077146 44.0385405,41.7292901 C44.0385405,40.2429429 45.3576307,39.3531631 46.7502349,39.3531631 C47.7773498,39.3531631 48.6204486,39.8536066 49.1216382,40.7417728 L48.2047942,41.2915461 Z M52.5039047,46.6642717 L54.1914894,42.7162772 L55.8640477,46.6642717 L57.5264343,43.0327714 L58.7717793,43.0327714 L55.8640477,48.9302135 L54.1914894,45.1166081 L52.5039047,48.9302135 L49.5975602,43.0327714 L50.8429052,43.0327714 L52.5039047,46.6642717 Z M59.5662849,48.7348308 L60.665758,48.7348308 L60.665758,43.0328636 L59.5662849,43.0328636 L59.5662849,48.7348308 Z M60.8735852,40.4257627 C60.8735852,40.8402249 60.5316759,41.1696278 60.1160214,41.1696278 C59.700367,41.1696278 59.3586889,40.8402249 59.3586889,40.4257627 C59.3586889,39.9995443 59.700367,39.6588462 60.1160214,39.6588462 C60.5316759,39.6588462 60.8735852,39.9995443 60.8735852,40.4257627 Z M63.6841073,48.7348308 L62.5846343,48.7348308 L62.5846343,44.0556494 L61.9861196,44.0556494 L61.9861196,43.0328636 L62.5846343,43.0328636 L62.5846343,40.8522115 L63.6841073,40.8522115 L63.6841073,43.0328636 L64.7583821,43.0328636 L64.7583821,44.0556494 L63.6841073,44.0556494 L63.6841073,48.7348308 Z M69.5601386,44.6538073 C69.1209042,44.1540553 68.5829576,43.8859688 67.922719,43.8859688 C66.8484442,43.8859688 66.0171353,44.836143 66.0171353,45.8838242 C66.0171353,47.0536771 66.835036,47.9058834 67.996233,47.9058834 C68.6315046,47.9058834 69.1444841,47.613593 69.5601386,47.1507231 L69.5601386,48.5524721 C69.058949,48.8200975 68.5579906,48.9302827 67.9846742,48.9302827 C66.2970895,48.9302827 64.9176623,47.6384884 64.9176623,45.9324624 C64.9176623,44.166042 66.2852995,42.8624915 68.0450111,42.8624915 C68.5579906,42.8624915 69.1209042,42.9844328 69.5601386,43.2400717 L69.5601386,44.6538073 Z M71.8445734,38.1598208 L71.8445734,43.8007021 L71.8695405,43.8007021 C72.2114497,43.1914565 72.8952683,42.8622841 73.5924951,42.8622841 C75.2047165,42.8622841 75.6203709,43.9468473 75.6203709,45.3356875 L75.6203709,48.7348308 L74.5208979,48.7348308 L74.5208979,45.469385 C74.5208979,44.495007 74.3851976,43.8366621 73.2623758,43.8366621 C71.8445734,43.8366621 71.8445734,45.0798182 71.8445734,46.1145906 L71.8445734,48.7348308 L70.7448693,48.7348308 L70.7448693,38.1598208 L71.8445734,38.1598208 Z M17.2179877,0 C12.6578101,0 8.3466091,1.78209526 5.07870531,5.01803542 C1.80363507,8.26089096 2.48689958e-14,12.5475089 2.48689958e-14,17.0876911 C2.48689958e-14,26.66896 7.56315367,34.1746907 17.2179877,34.1746907 C26.8730529,34.1746907 34.4362066,26.66896 34.4362066,17.0876911 C34.4362066,12.5475089 32.6325715,8.26089096 29.3575012,5.01803542 C26.0893663,1.78209526 21.7783964,0 17.2179877,0 Z M28.4438937,17.0876911 C28.4438937,23.3493436 23.407956,28.4434483 17.2179877,28.4434483 C11.0282506,28.4434483 5.99231282,23.3493436 5.99231282,17.0876911 C5.99231282,10.6130446 10.8183428,5.73032029 17.2179877,5.73032029 C23.6178638,5.73032029 28.4438937,10.6130446 28.4438937,17.0876911 Z M52.3275868,11.2598177 L47.501788,21.6679364 L42.7118215,11.2598177 L36.1767075,11.2598177 L47.4962398,34.5061221 L58.8643191,11.2598177 L52.3275868,11.2598177 Z M71.6711915,13.2754687 L69.4599931,12.4181912 C67.0032859,11.4800037 65.8589647,10.4000507 65.8589647,9.0190479 C65.8589647,7.05185077 67.9654403,5.73055081 69.932748,5.73055081 C71.7830806,5.73055081 72.9484388,6.41724875 73.9554414,8.100915 L74.5077208,9.02458021 L79.3938566,6.10098504 L78.8820329,5.19253369 C76.9956368,1.84410324 73.8467887,0 70.015509,0 C67.3967474,0 64.9243202,0.834226201 63.0543376,2.34869598 C60.9991831,4.01276864 59.8671143,6.38174976 59.8671143,9.0190479 C59.8671143,13.9670074 63.5846553,16.227878 67.2261395,17.7891419 L69.3571198,18.6895253 C72.2278632,19.8771278 74.0069937,21.1004597 74.0069937,23.5259165 C74.0069937,26.2835424 71.9842037,28.4434483 69.4024303,28.4434483 C68.0072832,28.4434483 66.7337347,27.9335538 65.8161972,27.0075834 C64.9592278,26.14316 64.4954887,24.9689273 64.510284,23.7015674 L64.5262352,22.3641315 L58.3559168,23.659153 L58.4869936,24.6445956 C59.2198215,30.1665323 63.6727334,34.1746907 69.0753163,34.1746907 C75.3034286,34.1746907 80,29.5967044 80,23.5259165 C80,17.3306517 75.5507869,14.7943182 71.6711915,13.2754687 Z M20.9333557,18.2324873 L12.4568257,18.2324873 L12.4568257,15.3697476 L7.17399201,19.6798779 L12.4568257,24.0725318 L12.4568257,21.4391524 L20.9333557,21.4391524 L20.9333557,18.2324873 Z M27.3288626,14.5835833 L22.0464912,10.2732225 L22.0464912,13.1359623 L13.5694989,13.1359623 L13.5694989,16.3426273 L22.0464912,16.3426273 L22.0464912,18.9760067 L27.3288626,14.5835833 Z" id="Combined-Shape"></path>
        </g>
    </g>
</svg>