<?xml version="1.0" encoding="utf-8"?>
<!-- Generator: Adobe Illustrator 16.0.0, SVG Export Plug-In . SVG Version: 6.00 Build 0)  -->
<!DOCTYPE svg PUBLIC "-//W3C//DTD SVG 1.1//EN" "http://www.w3.org/Graphics/SVG/1.1/DTD/svg11.dtd">
<svg version="1.1" id="Layer_1" xmlns="http://www.w3.org/2000/svg" xmlns:xlink="http://www.w3.org/1999/xlink" x="0px" y="0px"
	 width="100px" height="100px" viewBox="0 0 100 100" style="enable-background:new 0 0 100 100;" xml:space="preserve">
<style type="text/css">
<![CDATA[
	.st0{fill:#BD202F;}
]]>
</style>
<polygon class="st0" points="45.1064,24.9419 56.1055,38.999 62.4805,29.8945 44.3628,23.9937 "/>
<polygon class="st0" points="79.249,51.3486 56.8838,44.063 46.2466,59.2549 47.5464,60.915 60.7432,77.7793 "/>
<polygon class="st0" points="20.9795,49.936 43.3457,57.2217 53.9834,42.0317 52.7471,40.4556 39.4849,23.5063 "/>
<polygon class="st0" points="65.3818,31.9258 59.0088,41.0298 77.123,46.9312 "/>
<path class="st0" d="M98.8662,18.0151c-0.0078,0.0205-0.0156,0.0435-0.0254,0.063L83.6914,51.3232
	c-0.002,0.0059-0.0049,0.0127-0.0088,0.0176c-0.0078,0.0176-0.0186,0.0371-0.0293,0.0566
	c-0.0117,0.0234-0.0234,0.0459-0.0352,0.0684c-0.0107,0.0156-0.0195,0.0332-0.0303,0.0488
	c-0.0146,0.0234-0.0293,0.0498-0.0479,0.0742c-0.0029,0.0059-0.0068,0.0127-0.0107,0.0205l-0.0098,0.0127l-19.4033,27.709
	L99,82.6074V17.7202L98.8662,18.0151z M93.8506,80.0234c-1.249,0-2.2549-0.9658-2.2549-2.2344c0-1.248,0.9971-2.2559,2.2549-2.2559
	c1.2793,0,2.2549,0.998,2.2549,2.2461C96.1055,79.0469,95.1094,80.0234,93.8506,80.0234"/>
<path class="st0" d="M93.8506,75.8994c-1.0771,0-1.8477,0.7813-1.8477,1.8896c0,1.1182,0.8125,1.8682,1.8477,1.8682
	c1.0459,0,1.8477-0.7695,1.8477-1.8779C95.6982,76.6699,94.9277,75.8994,93.8506,75.8994 M94.3389,78.8643l-0.5381-0.8613h-0.2344
	v0.8613h-0.4873v-2.2246h0.7822c0.5186,0,0.8525,0.2139,0.8525,0.6699v0.0098c0,0.3359-0.1953,0.5195-0.4561,0.6025l0.5889,0.9424
	H94.3389z"/>
<path class="st0" d="M93.8506,77.0176h-0.2861v0.6484h0.2861c0.2539,0,0.3857-0.1113,0.3857-0.3252v-0.0107
	C94.2363,77.0967,94.0938,77.0176,93.8506,77.0176"/>
<polyline class="st0" points="97.7012,86.0498 97.7109,86.0469 97.7129,86.0439 97.7168,86.0439 97.7148,86.0439 97.7012,86.0498 
	"/>
<path class="st0" d="M97.7012,86.0498L97.7012,86.0498z"/>
<polygon class="st0" points="81.6748,47.1978 96.2715,15.1709 51.417,1.4951 67.125,28.6035 "/>
<path class="st0" d="M60.5234,82.4863c-0.0703-0.0088-0.1387-0.0273-0.207-0.0479c-0.0127-0.0049-0.0234-0.0068-0.0352-0.0098
	c-0.0029-0.0029-0.0068-0.0029-0.0088-0.0029l-0.0098-0.002l-0.001-0.0029l-21.4521-6.9873l13.9736,24.1133L97.2256,85.999
	l-36.709-3.4473L60.5234,82.4863z"/>
<polygon class="st0" points="41.2212,60.2549 23.1504,54.3691 34.8628,69.3369 "/>
<polygon class="st0" points="49.2461,68.835 44.1221,62.2881 37.7642,71.3682 55.835,77.2549 "/>
<path class="st0" d="M3.1772,15.3848l36.4014,3.3716c0.0112,0,0.0215,0.0024,0.0342,0.0039
	c0.0376,0.0044,0.0767,0.0098,0.1152,0.0161c0.0205,0.0039,0.0405,0.0078,0.0605,0.0117c0.0322,0.0073,0.0649,0.0151,0.0972,0.0244
	c0.0215,0.0063,0.0444,0.0117,0.0645,0.0176c0.0049,0.0034,0.0103,0.0034,0.0137,0.0049l21.458,6.9902L47.4512,1.7188
	L2.7461,15.3481l0.3032,0.0308C3.0928,15.3804,3.1353,15.3804,3.1772,15.3848"/>
<path class="st0" d="M16.4717,50.354c0.0522-0.1748,0.1323-0.3447,0.2407-0.5l19.5039-27.853L5.2598,19.1338l-0.0415-0.0039
	l-2.3677-0.2188c-0.0781-0.0073-0.1528-0.021-0.2271-0.0381l-1.3809-0.1372v65.1011L16.4717,50.354z"/>
<path class="st0" d="M48.5889,99.3936L33.4717,73.3066L18.5791,54.2764L4.6597,84.8877c-0.0078,0.0146-0.0151,0.0303-0.0225,0.0459
	l-0.624,1.3682L48.9531,100l-0.2632-0.4502C48.6558,99.5,48.6201,99.4492,48.5889,99.3936"/>
</svg>
