<?xml version="1.0" encoding="UTF-8"?>
<svg width="100px" height="100px" viewBox="0 0 100 100" version="1.1" xmlns="http://www.w3.org/2000/svg" xmlns:xlink="http://www.w3.org/1999/xlink">
    <!-- Generator: Sketch 41.2 (35397) - http://www.bohemiancoding.com/sketch -->
    <title>v-magine-logo</title>
    <desc>Created with Sketch.</desc>
    <defs></defs>
    <g id="Symbols" stroke="none" stroke-width="1" fill="none" fill-rule="evenodd" stroke-linejoin="round">
        <g id="v-magine-logo" stroke="#E30613">
            <g id="Group-2" transform="translate(0.500000, 0.500000)">
                <polygon id="Stroke-2" points="49.4982108 98.9743304 0.359620482 83.8958087 0.359620482 15.3576783 49.4982108 0.279156522 98.6368012 15.3576783 98.6368012 83.8958087"></polygon>
                <polyline id="Stroke-4" points="80.3402892 49.4563696 55.2260964 41.7465 39.1121566 21.0445435"></polyline>
                <polyline id="Stroke-5" points="18.6561325 49.6267043 43.8697229 57.5380957 59.8842651 78.0385304"></polyline>
                <polygon id="Stroke-6" points="34.769794 70.3285043 18.6562518 49.7971565 39.1122759 21.0445043 64.2264687 28.9249826 80.3404084 49.4563304 59.8839867 78.2089826"></polygon>
                <path d="M39.1122361,21.0446217 L0.359898795,15.3574043" id="Stroke-7"></path>
                <path d="M0.359779518,83.895887 C0.917598795,83.2924957 18.6560928,49.7972348 18.6560928,49.7972348" id="Stroke-8"></path>
                <path d="M59.8841855,78.2088261 L98.6365229,83.8960435" id="Stroke-10"></path>
                <polyline id="Stroke-12" points="49.4982108 0.279117391 64.2265482 28.9249435 34.7698735 70.3284652 49.4982108 98.9742913"></polyline>
                <path d="M98.6366422,15.3575609 L80.3403289,49.456213" id="Stroke-14"></path>
            </g>
        </g>
    </g>
</svg>