<?xml version="1.0" encoding="UTF-8"?>
<svg width="229px" height="274px" viewBox="0 0 229 274" version="1.1" xmlns="http://www.w3.org/2000/svg" xmlns:xlink="http://www.w3.org/1999/xlink">
    <!-- Generator: Sketch 41.2 (35397) - http://www.bohemiancoding.com/sketch -->
    <title>v-magine-logo-text</title>
    <desc>Created with Sketch.</desc>
    <defs></defs>
    <g id="Symbols" stroke="none" stroke-width="1" fill="none" fill-rule="evenodd">
        <g id="v-magine-logo-text">
            <path d="M16.4079293,272.996179 L31.3938381,234.71101 L29.8077383,234.71101 L15.696919,271.300693 L1.58609983,234.71101 L0,234.71101 L14.9859088,272.996179 L16.4079293,272.996179 Z M44.6842608,257.29926 L44.6842608,256.041318 L31.940769,256.041318 L31.940769,257.29926 L44.6842608,257.29926 Z M69.6243134,269.222355 L85.3759255,236.898734 L85.3759255,272.996179 L86.7432529,272.996179 L86.7432529,234.71101 L85.0477669,234.71101 L68.6945307,267.855027 L52.3412945,234.71101 L50.6458084,234.71101 L50.6458084,272.996179 L52.0131359,272.996179 L52.0131359,236.898734 L67.764748,269.222355 L69.6243134,269.222355 Z M115.566515,258.502508 L121.145211,272.996179 L122.676618,272.996179 L107.745402,234.71101 L106.432768,234.71101 L91.5015524,272.996179 L93.0329592,272.996179 L98.6116551,258.502508 L115.566515,258.502508 Z M115.074278,257.189873 L99.103893,257.189873 L107.089085,236.625269 L115.074278,257.189873 Z M142.31144,234 C131.591593,234 123.332935,242.422737 123.332935,253.853594 C123.332935,265.010986 131.208741,273.707189 142.31144,273.707189 C148.272988,273.707189 152.867208,271.738237 156.695725,267.581562 L156.695725,255.056843 L145.538333,255.056843 L145.538333,256.42417 L155.328397,256.42417 L155.328397,266.979938 C154.015763,268.456652 149.530929,272.285168 142.31144,272.285168 C132.357296,272.285168 124.809649,264.409362 124.809649,253.853594 C124.809649,243.243134 132.302603,235.422021 142.31144,235.422021 C148.49176,235.422021 152.320277,237.937903 154.453308,239.961548 L155.383091,238.867686 C153.414139,237.062813 149.312157,234 142.31144,234 Z M164.407452,272.996179 L165.829472,272.996179 L165.829472,234.71101 L164.407452,234.71101 L164.407452,272.996179 Z M174.580368,272.996179 L175.947695,272.996179 L175.947695,237.00812 L201.434679,272.996179 L202.802006,272.996179 L202.802006,234.71101 L201.434679,234.71101 L201.434679,270.534989 L175.893002,234.71101 L174.580368,234.71101 L174.580368,272.996179 Z M211.552902,272.996179 L229,272.996179 L229,271.628851 L212.974922,271.628851 L212.974922,254.072367 L226.538811,254.072367 L226.538811,252.705039 L212.974922,252.705039 L212.974922,236.078338 L228.343683,236.078338 L228.343683,234.71101 L211.552902,234.71101 L211.552902,272.996179 Z" id="V-MAGINE" fill="#FFFFFF"></path>
            <g id="Group-2-Copy" transform="translate(14.000000, 0.000000)" stroke-width="1.5" stroke="#E30613" stroke-linejoin="round">
                <polygon id="Stroke-2" points="99.9963855 199.948142 0.726506024 169.486482 0.726506024 31.0256126 99.9963855 0.563952569 199.266265 31.0256126 199.266265 169.486482"></polygon>
                <polyline id="Stroke-4" points="162.303614 99.9118577 111.567871 84.3363636 79.0144578 42.5142292"></polyline>
                <polyline id="Stroke-5" points="37.6891566 100.255968 88.6257028 116.238577 120.978313 157.653597"></polyline>
                <polygon id="Stroke-6" points="70.242008 142.077787 37.6893976 100.600316 79.0146988 42.5141502 129.750442 58.4343083 162.303855 99.9117787 120.977751 157.997945"></polygon>
                <path d="M79.0146185,42.5143874 L0.727068273,31.0250593" id="Stroke-7"></path>
                <path d="M0.726827309,169.48664 C1.85373494,168.267668 37.6890763,100.600474 37.6890763,100.600474" id="Stroke-8"></path>
                <path d="M120.978153,157.997628 L199.265703,169.486957" id="Stroke-10"></path>
                <polyline id="Stroke-12" points="99.9963855 0.563873518 129.750602 58.4342292 70.2421687 142.077708 99.9963855 199.948063"></polyline>
                <path d="M199.265944,31.0253755 L162.303695,99.9115415" id="Stroke-14"></path>
            </g>
        </g>
    </g>
</svg>